<svg xmlns="http://www.w3.org/2000/svg" viewBox="-91.626 -137.814 182.3 300.3" title="See Grail UI logo">
	<path
		d="m 1 -14 M -0.47 -137.813 C -24.03 -137.813 -45.4 -134.237 -61.688 -127.969 C -69.833 -124.836 -76.733 -121.063 -82.126 -116.159 C -87.518 -111.252 -91.626 -104.629 -91.626 -97.002 C -91.626 -96.112 -91.576 -95.237 -91.469 -94.377 C -88.849 -29.425 -59.389 23.176 -24.189 38.811 L -17.249 41.905 L -18.844 49.311 C -27.489 89.593 -39.419 112.921 -59.784 126.341 C -70.977 133.719 -73.968 139.556 -74.158 141.467 C -74.348 143.377 -73.393 145.667 -67.314 149.373 C -55.156 156.783 -27.389 162.53 -0.47 162.53 C 26.402 162.53 52.788 156.586 64.217 149.122 C 69.933 145.392 71.029 142.902 70.843 140.592 C 70.657 138.28 67.906 132.658 57.749 125.372 C 38.423 111.51 26.422 89.265 17.906 49.31 L 16.311 41.904 L 23.249 38.81 C 58.449 23.175 87.911 -29.426 90.529 -94.378 H 90.499 C 90.605 -95.238 90.655 -96.113 90.655 -97.003 C 90.655 -104.629 86.578 -111.253 81.185 -116.159 C 75.792 -121.064 68.861 -124.836 60.715 -127.969 C 44.427 -134.239 23.088 -137.814 -0.471 -137.814 Z M -0.47 -119.125 C 21.147 -119.125 40.684 -115.655 54 -110.532 C 60.657 -107.97 65.708 -104.969 68.593 -102.344 C 71.479 -99.719 71.968 -98.064 71.968 -97 C 71.968 -95.937 71.48 -94.282 68.594 -91.657 C 65.709 -89.031 60.658 -86.03 54 -83.467 C 40.685 -78.345 21.148 -74.874 -0.468 -74.874 C -22.084 -74.874 -41.652 -78.344 -54.968 -83.468 C -61.626 -86.031 -66.676 -89.032 -69.562 -91.658 C -72.448 -94.282 -72.937 -95.938 -72.937 -97.001 C -72.937 -98.064 -72.447 -99.719 -69.562 -102.344 C -66.676 -104.969 -61.626 -107.97 -54.968 -110.532 C -41.652 -115.655 -22.084 -119.126 -0.468 -119.126 Z"
		fill="currentColor" />
</svg>
