<svg version="1.1" xmlns="http://www.w3.org/2000/svg" xmlns:xlink="http://www.w3.org/1999/xlink"
	viewBox="728,556,455,120" title="Grail UI">
	<path fill="currentColor"
		d="M1098.50239,564.14995h-4.08908v78.42064c0,14.29769 7.05015,26.50441 26.93156,26.50441c19.66991,0 26.72005,-12.20672 26.72005,-26.50441v-78.42064h-3.90108v78.57134c0,12.50812 -5.56962,23.35854 -22.81897,23.35854c-17.27286,0 -22.84247,-10.85042 -22.84247,-23.35854zM1162.72922,564.14995v104.17155h4.08908v-104.17155z" />
	<path fill="currentColor"
		d="M753.55519,616.61248c0,-19.04718 16.13172,-34.50002 36.01569,-34.50002c9.86812,0 18.93852,3.90566 25.37939,10.18869l15.48173,-14.8302c-10.48857,-10.04718 -24.87712,-16.3585 -40.86112,-16.3585c-31.93845,0 -57.93829,24.90568 -57.93829,55.50003c0,30.59436 25.99985,55.50003 57.93829,55.50003c15.984,0 30.37255,-6.14151 40.86112,-16.18869v-48.31135h-54.95422v21.00001h33.03162v17.40567c-5.46588,3.28302 -12.05447,5.09434 -18.93852,5.09434c-19.88397,0 -36.01569,-15.45284 -36.01569,-34.50002zM869.5795,631.61248c0,-11.23586 9.3954,-20.26416 21.15442,-20.26416v-19.47171c-7.8295,0 -15.03855,2.09434 -21.15442,5.68868v-3.45283h-20.3567v75.00005h20.3567zM986.2538,594.11246h-20.3567v3.45283c-6.11587,-3.59434 -13.32492,-5.68868 -21.15442,-5.68868c-22.8385,0 -41.48157,17.8302 -41.48157,39.73587c0,21.90567 18.64307,39.73587 41.48157,39.73587c7.8295,0 15.03855,-2.09434 21.15442,-5.54717v3.31132h20.3567zM965.89711,631.61248c0,11.23586 -9.3954,20.26416 -21.15442,20.26416c-11.72948,0 -21.12487,-9.02831 -21.12487,-20.26416c0,-11.23586 9.3954,-20.26416 21.12487,-20.26416c11.75902,0 21.15442,9.02831 21.15442,20.26416zM1008.1764,669.11251h20.3567v-75.00004h-20.3567zM1005.81278,573.8483c0,6.62265 5.64315,12.02831 12.5272,12.02831c6.9136,0 12.5272,-5.40566 12.5272,-12.02831c0,-6.59434 -5.6136,-11.97171 -12.5272,-11.97171c-6.88405,0 -12.5272,5.37736 -12.5272,11.97171zM1050.45569,669.11251h20.3567v-105.00006h-20.3567z" />
</svg>
